# xmcd
# Copyright (C) 1995-1998 Ti Kan
#
# Track frame offsets:
#       150
#       14304
#       30229
#       47414
#       64266
#       77860
#       90055
#       102625
#       115369
#       130398
#       151278
#
# Disc length: 2153 seconds
#
# Revision: 0
# Processed by: cddbd v1.5.2PL0 Copyright (c) Steve Scherf et al.
# Submitted via: CD-Import v1.0
#
DISCID=8008670b
DTITLE=Bench - Sunday Morning Sidewalk
DYEAR=2010
DGENRE=
TTITLE0=Mr. Young
TTITLE1=Ouessant
TTITLE2=I Take You Down
TTITLE3=(Take It Like A) Sunday
TTITLE4=I Just Try To Pick Me Up
TTITLE5=We Love You
TTITLE6=Rose-Colored World
TTITLE7=I Guess You Are Just Too Far Away
TTITLE8=Wale
TTITLE9=My Depressive Mood
TTITLE10=Fogerty
EXTD=
EXTT0=
EXTT1=
EXTT2=
EXTT3=
EXTT4=
EXTT5=
EXTT6=
EXTT7=
EXTT8=
EXTT9=
EXTT10=
PLAYORDER=
